<?xml version="1.0"?>
<svg xmlns="http://www.w3.org/2000/svg" id="Filled" viewBox="0 0 512 512" width="512" height="512"><path d="M448,232v96l40,64H240a32,32,0,0,1-32-32V232a32,32,0,0,1,32-32H416A32,32,0,0,1,448,232Z" style="fill:#3397e8"/><path d="M64,152v96L24,312H272a32,32,0,0,0,32-32V152a32,32,0,0,0-32-32H96A32,32,0,0,0,64,152Z" style="fill:#dadc5d"/><path d="M400,336H256a8,8,0,0,0,0,16H400a8,8,0,0,0,0-16Z"/><path d="M24,320H200v40a40.045,40.045,0,0,0,40,40H488a8,8,0,0,0,6.784-12.24L456,325.706V232a40.045,40.045,0,0,0-40-40H312V152a40.045,40.045,0,0,0-40-40H96a40.045,40.045,0,0,0-40,40v93.706L17.216,307.76A8,8,0,0,0,24,320ZM416,208a24.027,24.027,0,0,1,24,24v96a7.994,7.994,0,0,0,1.216,4.24L473.566,384H240a24.027,24.027,0,0,1-24-24V320H400a8,8,0,0,0,0-16H303.978a39.841,39.841,0,0,0,7.217-16H400a8,8,0,0,0,0-16H312V256h88a8,8,0,0,0,0-16H312V208ZM70.784,252.24A7.994,7.994,0,0,0,72,248V152a24.027,24.027,0,0,1,24-24H272a24.027,24.027,0,0,1,24,24V280a24.027,24.027,0,0,1-24,24H38.434Z"/><path d="M256,160H144a8,8,0,0,0,0,16H256a8,8,0,0,0,0-16Z"/><path d="M256,192H112a8,8,0,0,0,0,16H256a8,8,0,0,0,0-16Z"/><path d="M256,224H112a8,8,0,0,0,0,16H256a8,8,0,0,0,0-16Z"/><path d="M256,256H112a8,8,0,0,0,0,16H256a8,8,0,0,0,0-16Z"/></svg>
